<?xml version="1.0" encoding="UTF-8"?>
<svg version="1.1" xmlns="http://www.w3.org/2000/svg" width="640" height="454">
<path d="M0 0 C1.22891062 -0.00128164 1.22891062 -0.00128164 2.48264772 -0.00258917 C5.23725854 -0.00424076 7.99180893 0.0012722 10.74641418 0.00672913 C12.71727497 0.00701109 14.68813586 0.00685308 16.65899658 0.00628662 C22.01816131 0.00599902 27.37730377 0.0118898 32.73646331 0.01886058 C38.33388008 0.02510024 43.93129733 0.0256984 49.52871704 0.02688599 C60.13216268 0.02999749 70.73559804 0.03820845 81.33903915 0.04823548 C93.40901071 0.05940222 105.47898275 0.06490848 117.54895818 0.06993091 C142.3814655 0.0803912 167.21396368 0.09798716 192.04646301 0.12025452 C192.04646301 0.78025452 192.04646301 1.44025452 192.04646301 2.12025452 C193.03646301 2.61525452 193.03646301 2.61525452 194.04646301 3.12025452 C193.38646301 3.12025452 192.72646301 3.12025452 192.04646301 3.12025452 C190.5550628 6.74222645 189.25903682 10.39592069 188.04646301 14.12025452 C187.38646301 14.12025452 186.72646301 14.12025452 186.04646301 14.12025452 C184.80446804 17.10104245 183.80329913 19.98479061 183.04646301 23.12025452 C182.71646301 23.78025452 182.38646301 24.44025452 182.04646301 25.12025452 C181.38646301 25.12025452 180.72646301 25.12025452 180.04646301 25.12025452 C179.73708801 26.04837952 179.42771301 26.97650452 179.10896301 27.93275452 C178.42146301 29.99525452 177.73396301 32.05775452 177.04646301 34.12025452 C176.38646301 34.12025452 175.72646301 34.12025452 175.04646301 34.12025452 C173.42931624 37.35454807 172.71399875 40.59185134 172.04646301 44.12025452 C171.38646301 44.12025452 170.72646301 44.12025452 170.04646301 44.12025452 C168.63672579 46.72284631 167.62469129 49.32828536 166.67146301 52.12025452 C165.38388541 55.6318298 163.89140993 57.63092596 161.04646301 60.12025452 C160.02322866 61.43584155 159.01519334 62.76403206 158.04646301 64.12025452 C158.37646301 64.78025452 158.70646301 65.44025452 159.04646301 66.12025452 C158.57208801 66.53275452 158.09771301 66.94525452 157.60896301 67.37025452 C155.92022989 68.96746475 155.92022989 68.96746475 155.67146301 70.93275452 C154.70964554 74.29911569 152.26570655 76.45716227 150.04646301 79.12025452 C149.19366964 81.33760891 149.19366964 81.33760891 149.04646301 83.12025452 C148.38646301 83.12025452 147.72646301 83.12025452 147.04646301 83.12025452 C146.75771301 83.84212952 146.46896301 84.56400452 146.17146301 85.30775452 C145.12979635 87.91192118 144.08812968 90.51608785 143.04646301 93.12025452 C142.38646301 93.12025452 141.72646301 93.12025452 141.04646301 93.12025452 C139.5878322 96.59974467 139.5878322 96.59974467 138.67146301 100.24525452 C138.04646301 102.12025452 138.04646301 102.12025452 136.10896301 103.37025452 C133.70856541 105.40695551 133.6447481 106.19132908 133.04646301 109.18275452 C132.61286926 111.33509827 132.61286926 111.33509827 132.04646301 113.12025452 C129.98396301 114.24525452 129.98396301 114.24525452 128.04646301 115.12025452 C127.92271301 115.98650452 127.79896301 116.85275452 127.67146301 117.74525452 C126.89842863 121.91964018 125.09831312 123.98606858 122.42146301 127.19056702 C120.91846997 129.03888344 120.91846997 129.03888344 120.54646301 131.29994202 C120.38146301 131.90064514 120.21646301 132.50134827 120.04646301 133.12025452 C119.05646301 133.45025452 118.06646301 133.78025452 117.04646301 134.12025452 C117.04646301 135.77025452 117.04646301 137.42025452 117.04646301 139.12025452 C116.05646301 139.45025452 115.06646301 139.78025452 114.04646301 140.12025452 C114.04646301 141.11025452 114.04646301 142.10025452 114.04646301 143.12025452 C113.38646301 143.12025452 112.72646301 143.12025452 112.04646301 143.12025452 C111.84021301 144.11025452 111.63396301 145.10025452 111.42146301 146.12025452 C110.28586006 150.20676733 108.07300239 153.00037473 105.38630676 156.22572327 C103.98148316 158.21213565 103.4731956 159.74424964 103.04646301 162.12025452 C102.38646301 162.12025452 101.72646301 162.12025452 101.04646301 162.12025452 C100.77833801 163.04837952 100.51021301 163.97650452 100.23396301 164.93275452 C99.08910753 168.00578765 98.3630956 168.99667465 96.04646301 171.12025452 C94.6984622 173.36692254 94.06200845 175.01661826 93.67146301 177.62025452 C92.88004762 180.78591607 91.39457174 181.91445541 89.04646301 184.12025452 C87.74407937 186.33430672 87.04646301 187.5531771 87.04646301 190.12025452 C85.71312968 191.45358785 84.37979635 192.78692118 83.04646301 194.12025452 C81.74407937 196.33430672 81.04646301 197.5531771 81.04646301 200.12025452 C80.05646301 200.45025452 79.06646301 200.78025452 78.04646301 201.12025452 C77.98458801 201.98650452 77.92271301 202.85275452 77.85896301 203.74525452 C76.8522058 207.92716911 74.81649327 209.87729227 72.04646301 213.12025452 C71.36850773 215.11645618 70.69912771 217.11564153 70.04646301 219.12025452 C69.05646301 219.45025452 68.06646301 219.78025452 67.04646301 220.12025452 C66.30528096 222.43099856 65.64439974 224.76837005 65.04646301 227.12025452 C63.79622906 230.12081601 62.32296797 231.84374956 60.04646301 234.12025452 C60.04646301 234.78025452 60.04646301 235.44025452 60.04646301 236.12025452 C58.04646301 237.74525452 58.04646301 237.74525452 56.04646301 239.12025452 C56.37646301 239.78025452 56.70646301 240.44025452 57.04646301 241.12025452 C56.33490051 241.73900452 56.33490051 241.73900452 55.60896301 242.37025452 C53.92022989 243.96746475 53.92022989 243.96746475 53.67146301 245.93275452 C52.70964554 249.29911569 50.26570655 251.45716227 48.04646301 254.12025452 C47.19366964 256.33760891 47.19366964 256.33760891 47.04646301 258.12025452 C46.38646301 258.12025452 45.72646301 258.12025452 45.04646301 258.12025452 C44.75771301 258.84212952 44.46896301 259.56400452 44.17146301 260.30775452 C43.80021301 261.23587952 43.42896301 262.16400452 43.04646301 263.12025452 C42.71646301 264.00712952 42.38646301 264.89400452 42.04646301 265.80775452 C41.04646301 268.12025452 41.04646301 268.12025452 39.04646301 270.12025452 C38.61333801 271.35775452 38.61333801 271.35775452 38.17146301 272.62025452 C37.04646301 275.12025452 37.04646301 275.12025452 35.23396301 276.49525452 C32.51844811 277.27111592 30.73847452 276.86803549 28.04646301 276.12025452 C27.90208801 275.52212952 27.75771301 274.92400452 27.60896301 274.30775452 C27.15921912 272.55875047 26.6175396 270.83348429 26.04646301 269.12025452 C25.38646301 268.79025452 24.72646301 268.46025452 24.04646301 268.12025452 C21.04646301 263.62025452 21.04646301 263.62025452 21.04646301 261.12025452 C20.08740051 260.74900452 20.08740051 260.74900452 19.10896301 260.37025452 C17.04646301 259.12025452 17.04646301 259.12025452 16.35896301 257.18275452 C16.25583801 256.50212952 16.15271301 255.82150452 16.04646301 255.12025452 C15.71646301 254.13025452 15.38646301 253.14025452 15.04646301 252.12025452 C14.38646301 251.79025452 13.72646301 251.46025452 13.04646301 251.12025452 C10.04646301 246.62025452 10.04646301 246.62025452 10.04646301 244.12025452 C8.72646301 243.46025452 7.40646301 242.80025452 6.04646301 242.12025452 C6.04646301 241.13025452 6.04646301 240.14025452 6.04646301 239.12025452 C5.38646301 238.46025452 4.72646301 237.80025452 4.04646301 237.12025452 C4.04646301 236.46025452 4.04646301 235.80025452 4.04646301 235.12025452 C3.21312968 232.95358785 3.21312968 232.95358785 1.04646301 232.12025452 C-0.20353699 229.87025452 -0.20353699 229.87025452 -0.95353699 227.12025452 C-0.07853699 224.30775452 -0.07853699 224.30775452 1.04646301 222.12025452 C1.70646301 222.12025452 2.36646301 222.12025452 3.04646301 222.12025452 C3.10833801 221.58400452 3.17021301 221.04775452 3.23396301 220.49525452 C4.20508156 217.65660031 5.8857376 215.92599378 7.84333801 213.69837952 C9.60993091 211.38116027 10.26086745 208.90005419 11.04646301 206.12025452 C12.18091094 203.52723068 13.51639673 201.42247415 15.10896301 199.05775452 C17.15118845 196.23668112 17.15118845 196.23668112 18.04646301 193.12025452 C18.70646301 193.12025452 19.36646301 193.12025452 20.04646301 193.12025452 C20.33521301 192.39837952 20.62396301 191.67650452 20.92146301 190.93275452 C21.96312968 188.32858785 23.00479635 185.72442118 24.04646301 183.12025452 C24.70646301 183.12025452 25.36646301 183.12025452 26.04646301 183.12025452 C27.50509382 179.64076436 27.50509382 179.64076436 28.42146301 175.99525452 C29.04646301 174.12025452 29.04646301 174.12025452 30.98396301 172.87025452 C33.38436061 170.83355352 33.44817793 170.04917995 34.04646301 167.05775452 C34.48396301 164.90150452 34.48396301 164.90150452 35.04646301 163.12025452 C36.3629342 162.4208792 37.69668452 161.75296318 39.04646301 161.12025452 C39.74779141 158.79710421 40.41131475 156.46236373 41.04646301 154.12025452 C42.34591045 152.42703513 43.67572516 150.75629647 45.04646301 149.12025452 C45.21146301 148.41900452 45.37646301 147.71775452 45.54646301 146.99525452 C46.04646301 145.12025452 46.04646301 145.12025452 48.04646301 143.74525452 C50.36926503 142.22425558 50.36926503 142.22425558 50.54646301 139.12025452 C51.04646301 136.12025452 51.04646301 136.12025452 52.98396301 134.49525452 C53.66458801 134.04150452 54.34521301 133.58775452 55.04646301 133.12025452 C56.46456696 130.88114302 57.02711049 129.24927134 57.42146301 126.62025452 C58.21220797 123.4572747 59.76649036 122.40022717 62.04646301 120.12025452 C62.54146301 118.63525452 62.54146301 118.63525452 63.04646301 117.12025452 C64.16115979 113.77616418 65.55785054 112.52858917 68.04646301 110.12025452 C68.77028768 108.06100313 68.77028768 108.06100313 69.04646301 106.12025452 C69.37646301 105.46025452 69.70646301 104.80025452 70.04646301 104.12025452 C70.70646301 104.12025452 71.36646301 104.12025452 72.04646301 104.12025452 C72.70646301 101.81025452 73.36646301 99.50025452 74.04646301 97.12025452 C74.70646301 97.12025452 75.36646301 97.12025452 76.04646301 97.12025452 C76.04646301 96.13025452 76.04646301 95.14025452 76.04646301 94.12025452 C76.50021301 93.68712952 76.95396301 93.25400452 77.42146301 92.80775452 C79.28422115 91.12204014 79.28422115 91.12204014 79.98396301 88.18275452 C81.15736337 84.80060055 82.43467456 83.49460766 85.04646301 81.12025452 C86.06969737 79.80466749 87.07773269 78.47647697 88.04646301 77.12025452 C87.71646301 76.46025452 87.38646301 75.80025452 87.04646301 75.12025452 C88.03646301 74.79025452 89.02646301 74.46025452 90.04646301 74.12025452 C90.04646301 72.47025452 90.04646301 70.82025452 90.04646301 69.12025452 C91.03646301 68.79025452 92.02646301 68.46025452 93.04646301 68.12025452 C93.04646301 67.13025452 93.04646301 66.14025452 93.04646301 65.12025452 C93.70646301 65.12025452 94.36646301 65.12025452 95.04646301 65.12025452 C95.70646301 62.81025452 96.36646301 60.50025452 97.04646301 58.12025452 C97.70646301 58.12025452 98.36646301 58.12025452 99.04646301 58.12025452 C100.55576484 54.73392942 100.55576484 54.73392942 101.04646301 51.12025452 C65.40646301 50.79025452 29.76646301 50.46025452 -6.95353699 50.12025452 C-7.44853699 48.63525452 -7.44853699 48.63525452 -7.95353699 47.12025452 C-8.94353699 46.79025452 -9.93353699 46.46025452 -10.95353699 46.12025452 C-10.95353699 31.27025452 -10.95353699 16.42025452 -10.95353699 1.12025452 C-7.25690474 -0.11195623 -3.84879623 -0.01457004 0 0 Z " fill="#ECC777" transform="translate(162.9535369873047,88.87974548339844)"/>
<path d="M0 0 C0.99 0 1.98 0 3 0 C3.433125 0.9590625 3.433125 0.9590625 3.875 1.9375 C4.82823451 4.15206079 4.82823451 4.15206079 7 5 C7 5.66 7 6.32 7 7 C7.99 7.495 7.99 7.495 9 8 C9.66666667 9.33333333 10.33333333 10.66666667 11 12 C11.515625 12.45375 12.03125 12.9075 12.5625 13.375 C14.62278935 15.70402275 14.6639317 17.97538534 15 21 C15.66 21 16.32 21 17 21 C17 21.66 17 22.32 17 23 C17.99 23.66 18.98 24.32 20 25 C20.6837045 26.32467746 21.34964186 27.65863633 22 29 C22.515625 29.45375 23.03125 29.9075 23.5625 30.375 C25.62278935 32.70402275 25.6639317 34.97538534 26 38 C26.99 38.33 27.98 38.66 29 39 C29 39.66 29 40.32 29 41 C29.66 41.33 30.32 41.66 31 42 C34 46.5 34 46.5 34 49 C34.66 49 35.32 49 36 49 C36 49.66 36 50.32 36 51 C35.071875 51.86625 35.071875 51.86625 34.125 52.75 C31.80123078 54.8938301 31.80123078 54.8938301 31 58 C29.88530322 61.34409033 28.48861247 62.59166535 26 65 C25.27617533 67.05925139 25.27617533 67.05925139 25 69 C24.67 69.66 24.34 70.32 24 71 C23.01 71.33 22.02 71.66 21 72 C21.061875 72.7425 21.12375 73.485 21.1875 74.25 C20.96760006 77.47519908 20.21747812 78.69723426 18 81 C17.34 81 16.68 81 16 81 C15.79375 81.99 15.5875 82.98 15.375 84 C14.23744115 88.08037412 12.00554173 90.80557284 9.390625 94.07421875 C7.60398284 96.54841703 6.83305789 99.08429739 6 102 C5.34 102.66 4.68 103.32 4 104 C3.67 104.99 3.34 105.98 3 107 C2.34 107 1.68 107 1 107 C1 107.99 1 108.98 1 110 C0.34 110 -0.32 110 -1 110 C-1.20625 110.99 -1.4125 111.98 -1.625 113 C-2.76357448 117.08401714 -4.99832935 119.81162143 -7.6171875 123.08203125 C-9.39398581 125.54646055 -10.0844581 128.12258261 -11 131 C-12.31328657 132.35308313 -13.64499081 133.68870078 -15 135 C-15.7872678 137.1381966 -15.7872678 137.1381966 -16 139 C-16.66 139 -17.32 139 -18 139 C-18.66 141.31 -19.32 143.62 -20 146 C-20.66 146 -21.32 146 -22 146 C-22.268125 146.680625 -22.53625 147.36125 -22.8125 148.0625 C-24.16053306 151.39710809 -25.57536298 154.69743237 -27 158 C-27.66 158 -28.32 158 -29 158 C-30.07525194 160.65228812 -31.09456151 163.28368454 -32 166 C-32.99 166.66 -33.98 167.32 -35 168 C-36.54061257 171.8888902 -36.54061257 171.8888902 -37 176 C-37.639375 176.20625 -38.27875 176.4125 -38.9375 176.625 C-41.33049954 177.87356003 -41.33049954 177.87356003 -41.625 180.9375 C-41.810625 182.4534375 -41.810625 182.4534375 -42 184 C-42.66 184.99 -43.32 185.98 -44 187 C-44.66 187 -45.32 187 -46 187 C-46.98758747 189.37020993 -47.918674 191.604988 -48.4375 194.125 C-49.12641749 196.42139163 -50.29220731 197.36645917 -52 199 C-52 199.66 -52 200.32 -52 201 C-53 202 -54 203 -55 204 C-55 204.66 -55 205.32 -55 206 C-55.680625 206.61875 -55.680625 206.61875 -56.375 207.25 C-58.2507979 209.02164415 -58.2507979 209.02164415 -59 212.125 C-59.33 213.07375 -59.66 214.0225 -60 215 C-60.99 215.33 -61.98 215.66 -63 216 C-64.17138134 219.43315137 -64.17138134 219.43315137 -65 223 C-65.33 223.66 -65.66 224.32 -66 225 C-66.66 225 -67.32 225 -68 225 C-68.4640625 225.9590625 -68.4640625 225.9590625 -68.9375 226.9375 C-70 229 -70 229 -71 230 C-33.38 230.33 4.24 230.66 43 231 C43 246.18 43 261.36 43 277 C-23.33 277.33 -89.66 277.66 -158 278 C-159.0448029 274.86559131 -159.15317663 273.97903963 -158 271 C-157.01 270.34 -156.02 269.68 -155 269 C-154.2863409 266.68060793 -153.6252708 264.34476551 -153 262 C-151.18316347 257.78824259 -149.20969135 255.20969135 -146 252 C-146 251.01 -146 250.02 -146 249 C-145.505 248.01 -145.505 248.01 -145 247 C-144.34 247 -143.68 247 -143 247 C-141.52952664 243.08936776 -141.52952664 243.08936776 -141 239 C-140.34 239 -139.68 239 -139 239 C-138.87625 238.195625 -138.7525 237.39125 -138.625 236.5625 C-138.41875 235.716875 -138.2125 234.87125 -138 234 C-137.34 233.67 -136.68 233.34 -136 233 C-135.34786708 230.97536745 -135.34786708 230.97536745 -135 229 C-134.34 229 -133.68 229 -133 229 C-132.71125 228.278125 -132.4225 227.55625 -132.125 226.8125 C-131.568125 225.4203125 -131.568125 225.4203125 -131 224 C-130.690625 223.113125 -130.38125 222.22625 -130.0625 221.3125 C-129 219 -129 219 -126 217 C-125.26656572 213.93443402 -125.26656572 213.93443402 -125 211 C-124.34 211 -123.68 211 -123 211 C-122.67 210.01 -122.34 209.02 -122 208 C-121.34 207.67 -120.68 207.34 -120 207 C-119.9175 206.154375 -119.835 205.30875 -119.75 204.4375 C-118.84455506 200.28754404 -117.03981598 198.2175631 -114.42578125 194.9609375 C-112.6165166 192.472579 -111.8398629 189.93952016 -111 187 C-110.34 186.34 -109.68 185.68 -109 185 C-108.67 184.01 -108.34 183.02 -108 182 C-107.01 181.67 -106.02 181.34 -105 181 C-105 180.01 -105 179.02 -105 178 C-104.34 177.01 -103.68 176.02 -103 175 C-102.731875 174.236875 -102.46375 173.47375 -102.1875 172.6875 C-101 170 -101 170 -98.4375 166.9375 C-96.30974798 164.37328603 -95.37038156 163.20997354 -95 160 C-94.34 160 -93.68 160 -93 160 C-93 159.01 -93 158.02 -93 157 C-92 156 -91 155 -90 154 C-89.28552357 151.89667109 -89.28552357 151.89667109 -89 150 C-88.34 150 -87.68 150 -87 150 C-86.79375 149.01 -86.5875 148.02 -86.375 147 C-85.23939705 142.91348718 -83.02653938 140.11987979 -80.33984375 136.89453125 C-78.93502015 134.90811887 -78.42673258 133.37600487 -78 131 C-77.34 131 -76.68 131 -76 131 C-74.93754971 129.08903493 -74.93754971 129.08903493 -74.625 127.1875 C-73.12758806 121.94655821 -69.48332909 118.04819327 -66 114 C-66.33 113.34 -66.66 112.68 -67 112 C-66.34 112 -65.68 112 -65 112 C-63.8509288 110.0745356 -63.8509288 110.0745356 -64 108 C-63 106 -63 106 -61 105 C-61.33 104.34 -61.66 103.68 -62 103 C-61.401875 102.505 -60.80375 102.01 -60.1875 101.5 C-57.73151483 98.69315981 -56.95787209 96.35610203 -55.78515625 92.8828125 C-54.72569098 90.34220425 -52.96021087 88.89697826 -51 87 C-49.73215876 83.86649283 -49.73215876 83.86649283 -49 81 C-48.34 81 -47.68 81 -47 81 C-46.773125 80.175 -46.54625 79.35 -46.3125 78.5 C-44.95884778 74.89026076 -43.24339016 72.02492229 -41.12109375 68.83203125 C-39.83810114 66.89004926 -39.83810114 66.89004926 -39 64 C-38.34 64 -37.68 64 -37 64 C-36.814375 62.7934375 -36.814375 62.7934375 -36.625 61.5625 C-36.41875 60.716875 -36.2125 59.87125 -36 59 C-35.34 58.67 -34.68 58.34 -34 58 C-33.65657551 56.66923011 -33.32380126 55.33568021 -33 54 C-32.01 53.01 -32.01 53.01 -31 52 C-29.2869606 49.94435272 -28.1171803 48.49801626 -27.5 45.875 C-27 44 -27 44 -24 42 C-23.51344404 39.98890204 -23.03069973 37.97642059 -22.59765625 35.953125 C-21.76474397 33.23118943 -20.04804105 31.92003849 -18 30 C-17.67 29.01 -17.34 28.02 -17 27 C-15.87687034 23.63061102 -14.46825907 22.46825907 -12 20 C-10.73215876 16.86649283 -10.73215876 16.86649283 -10 14 C-9.34 14 -8.68 14 -8 14 C-7.34 11.69 -6.68 9.38 -6 7 C-5.34 7 -4.68 7 -4 7 C-4 6.01 -4 5.02 -4 4 C-3.34 4 -2.68 4 -2 4 C-1.34 2.68 -0.68 1.36 0 0 Z " fill="#ECC775" transform="translate(378,88)"/>
<path d="M0 0 C0.99 0 1.98 0 3 0 C3 0.99 3 1.98 3 3 C4.98 3 6.96 3 9 3 C9 2.01 9 1.02 9 0 C11.64 0.66 14.28 1.32 17 2 C17 2.66 17 3.32 17 4 C17.61875 4.061875 18.2375 4.12375 18.875 4.1875 C19.926875 4.5896875 19.926875 4.5896875 21 5 C21.68132451 6.66072849 22.34742127 8.327767 23 10 C24.32520503 10.68268138 25.65812182 11.3507041 27 12 C27.625 14.0625 27.625 14.0625 28 16 C28.66 16.33 29.32 16.66 30 17 C29.67 17.66 29.34 18.32 29 19 C29.66 19 30.32 19 31 19 C30.505 20.485 30.505 20.485 30 22 C30 22.33 30 22.66 30 23 C30.66 23.33 31.32 23.66 32 24 C32 25.32 32 26.64 32 28 C30.68 28.33 29.36 28.66 28 29 C28.99 29.33 29.98 29.66 31 30 C31 30.99 31 31.98 31 33 C30.34 33 29.68 33 29 33 C28.84144531 33.62648438 28.68289063 34.25296875 28.51953125 34.8984375 C27.81426578 37.36881489 27.09276694 39.67304922 26 42 C23.375 43.3125 23.375 43.3125 21 44 C20.855625 44.66 20.71125 45.32 20.5625 46 C20.376875 46.66 20.19125 47.32 20 48 C15.15155727 50.14057612 10.69662575 50.33533227 5.5 50.3125 C4.76652344 50.32861328 4.03304688 50.34472656 3.27734375 50.36132812 C-1.55173544 50.36564752 -4.79411781 49.60333973 -9 47 C-9.66 46.34 -10.32 45.68 -11 45 C-11.66 44.67 -12.32 44.34 -13 44 C-13 43.01 -13 42.02 -13 41 C-13.99 40.67 -14.98 40.34 -16 40 C-16.33 37.03 -16.66 34.06 -17 31 C-17.99 30.67 -18.98 30.34 -20 30 C-20 27.36 -20 24.72 -20 22 C-19.01 21.67 -18.02 21.34 -17 21 C-16.98582031 20.41992188 -16.97164063 19.83984375 -16.95703125 19.2421875 C-16.58507399 13.15013073 -15.55053771 10.14604547 -11 6 C-7.6875 4.625 -7.6875 4.625 -5 4 C-5 3.34 -5 2.68 -5 2 C-3.68 1.67 -2.36 1.34 -1 1 C-0.67 1.99 -0.34 2.98 0 4 C0 2.68 0 1.36 0 0 Z " fill="#ECC776" transform="translate(456,316)"/>
<path d="M0 0 C37.62 0 75.24 0 114 0 C111 8 111 8 108 11 C107.22937976 12.20361088 106.49851923 13.43374072 105.8125 14.6875 C105.214375 15.780625 104.61625 16.87375 104 18 C103.34 18 102.68 18 102 18 C102.66 15.69 103.32 13.38 104 11 C104.66 11 105.32 11 106 11 C107.50930183 7.6136749 107.50930183 7.6136749 108 4 C72.36 3.67 36.72 3.34 0 3 C0 2.01 0 1.02 0 0 Z " fill="#DADCFF" transform="translate(156,136)"/>
<path d="M0 0 C57.915 0.495 57.915 0.495 117 1 C117 16.18 117 31.36 117 47 C116.01 47 115.02 47 114 47 C114 32.15 114 17.3 114 2 C76.38 2 38.76 2 0 2 C0 1.34 0 0.68 0 0 Z " fill="#F4E1B5" transform="translate(304,318)"/>
<path d="M0 0 C65.34 0 130.68 0 198 0 C198 0.33 198 0.66 198 1 C132.66 1 67.32 1 0 1 C0 0.67 0 0.34 0 0 Z " fill="#FFFFFF" transform="translate(221,366)"/>
<path d="M0 0 C65.34 0 130.68 0 198 0 C198 0.33 198 0.66 198 1 C132.66 1 67.32 1 0 1 C0 0.67 0 0.34 0 0 Z " fill="#FFFFFF" transform="translate(156,87)"/>
<path d="M0 0 C1.32 0 2.64 0 4 0 C4 14.85 4 29.7 4 45 C2.68 45 1.36 45 0 45 C0 30.15 0 15.3 0 0 Z " fill="#C7CFFF" transform="translate(152,90)"/>
<path d="M0 0 C0.99 0.495 0.99 0.495 2 1 C2 1.66 2 2.32 2 3 C2.66 3.33 3.32 3.66 4 4 C3.67 4.66 3.34 5.32 3 6 C3.66 6 4.32 6 5 6 C4.67 6.99 4.34 7.98 4 9 C4 9.33 4 9.66 4 10 C4.66 10.33 5.32 10.66 6 11 C6 12.32 6 13.64 6 15 C4.68 15.33 3.36 15.66 2 16 C2.99 16.33 3.98 16.66 5 17 C5 17.99 5 18.98 5 20 C4.34 20 3.68 20 3 20 C2.67 20.66 2.34 21.32 2 22 C0.04401619 16.70733792 0.04314122 12.88313212 0.7734375 7.3125 C1.02977505 4.69608917 0.75510123 2.5170041 0 0 Z " fill="#DCD1B6" transform="translate(482,329)"/>
<path d="M0 0 C0.99 0 1.98 0 3 0 C3 0.99 3 1.98 3 3 C4.98 3 6.96 3 9 3 C9 2.01 9 1.02 9 0 C11.64 0.66 14.28 1.32 17 2 C17 2.66 17 3.32 17 4 C17.61875 4.0825 18.2375 4.165 18.875 4.25 C21 5 21 5 22.25 7.0625 C22.4975 7.701875 22.745 8.34125 23 9 C20.28813974 7.96311225 17.89788385 6.93524342 15.4375 5.375 C10.34485587 3.33794235 5.4184104 3.76327333 0 4 C0 2.68 0 1.36 0 0 Z " fill="#CAC8F7" transform="translate(456,316)"/>
<path d="M0 0 C-1.95656961 3.5218253 -3.95100975 6.34442785 -7 9 C-7.66 9 -8.32 9 -9 9 C-9.33 9.99 -9.66 10.98 -10 12 C-10.8125 9.875 -10.8125 9.875 -11 7 C-4.61313869 -2.30656934 -4.61313869 -2.30656934 0 0 Z " fill="#EEDAB1" transform="translate(451,321)"/>
<path d="M0 0 C0.66 0 1.32 0 2 0 C2.433125 1.175625 2.86625 2.35125 3.3125 3.5625 C6.15463946 9.40294044 11.49489016 11.96269802 17 15 C14 16 14 16 10.9375 14.6875 C8 13 8 13 6 11 C5.34 10.67 4.68 10.34 4 10 C4 9.01 4 8.02 4 7 C3.01 6.67 2.02 6.34 1 6 C0.67 4.02 0.34 2.04 0 0 Z " fill="#C6D2FD" transform="translate(439,350)"/>
<path d="M0 0 C0.66 0.66 1.32 1.32 2 2 C1.34 2.66 0.68 3.32 0 4 C-0.144375 4.804375 -0.28875 5.60875 -0.4375 6.4375 C-1.09386873 9.42762422 -1.84501105 9.92482545 -4 12 C-5.42915962 14.28768357 -6.70424795 16.63190143 -8 19 C-8.66 19 -9.32 19 -10 19 C-8.125 12.25 -8.125 12.25 -7 10 C-6.34 10 -5.68 10 -5 10 C-4.731875 9.0925 -4.46375 8.185 -4.1875 7.25 C-3.10423706 4.28528037 -2.01640543 2.3830246 0 0 Z " fill="#CED9F4" transform="translate(336,159)"/>
<path d="M0 0 C0.99 0 1.98 0 3 0 C3 3.3 3 6.6 3 10 C1.68 9.67 0.36 9.34 -1 9 C-1.09765625 2.84765625 -1.09765625 2.84765625 -1 1 C-0.67 0.67 -0.34 0.34 0 0 Z " fill="#C2D4F8" transform="translate(437,337)"/>
<path d="M0 0 C0.66 0.66 1.32 1.32 2 2 C0.716961 4.17221487 -0.57572113 6.3375324 -1.875 8.5 C-2.23980469 9.12003906 -2.60460937 9.74007813 -2.98046875 10.37890625 C-3.9322518 11.95367458 -4.96110259 13.48129053 -6 15 C-6.66 15 -7.32 15 -8 15 C-6.66666667 11.66666667 -5.33333333 8.33333333 -4 5 C-3.34 5 -2.68 5 -2 5 C-1.34 3.35 -0.68 1.7 0 0 Z " fill="#D8DCF6" transform="translate(191,267)"/>
<path d="M0 0 C0.66 0 1.32 0 2 0 C2 0.99 2 1.98 2 3 C1 4 0 5 -1 6 C-2.42827193 8.28830664 -3.70420338 10.63181997 -5 13 C-5.66 13 -6.32 13 -7 13 C-6.34 10.69 -5.68 8.38 -5 6 C-4.34 6 -3.68 6 -3 6 C-2.690625 5.195625 -2.38125 4.39125 -2.0625 3.5625 C-1 1 -1 1 0 0 Z " fill="#D1D6F5" transform="translate(265,141)"/>
<path d="M0 0 C0.66 0 1.32 0 2 0 C0.80805531 5.52628901 -0.5991297 8.17819158 -5 12 C-5 11.01 -5 10.02 -5 9 C-4.34 8.67 -3.68 8.34 -3 8 C-2.64984951 6.33678518 -2.31802943 4.66965451 -2 3 C-1.34 2.01 -0.68 1.02 0 0 Z " fill="#D6E1F3" transform="translate(273,232)"/>
<path d="M0 0 C0 0.99 0 1.98 0 3 C-0.99 3 -1.98 3 -3 3 C-3.0825 3.94875 -3.165 4.8975 -3.25 5.875 C-4 9 -4 9 -6.0625 10.375 C-6.701875 10.58125 -7.34125 10.7875 -8 11 C-7.34 8.69 -6.68 6.38 -6 4 C-5.34 4 -4.68 4 -4 4 C-4 3.01 -4 2.02 -4 1 C-2 0 -2 0 0 0 Z " fill="#DDD9F2" transform="translate(243,182)"/>
<path d="M0 0 C0.66 0 1.32 0 2 0 C1.5020163 3.73487777 1.12508244 5.81237635 -1 9 C-1.99 8.67 -2.98 8.34 -4 8 C-2.68 5.36 -1.36 2.72 0 0 Z " fill="#E9E4F6" transform="translate(335,266)"/>
<path d="M0 0 C0.99 0.33 1.98 0.66 3 1 C2.23832543 2.46313772 1.46529293 3.92036661 0.6875 5.375 C0.04361328 6.59316406 0.04361328 6.59316406 -0.61328125 7.8359375 C-2 10 -2 10 -5 12 C-4.34 9.69 -3.68 7.38 -3 5 C-2.34 5 -1.68 5 -1 5 C-0.67 3.35 -0.34 1.7 0 0 Z " fill="#D6D7FD" transform="translate(342,147)"/>
<path d="M0 0 C0.99 0.33 1.98 0.66 3 1 C2.40606618 2.29640378 1.79942011 3.58698839 1.1875 4.875 C0.85105469 5.59429687 0.51460937 6.31359375 0.16796875 7.0546875 C-1 9 -1 9 -4 11 C-3.67 10.05125 -3.34 9.1025 -3 8.125 C-1.89840809 5.22937548 -1.89840809 5.22937548 -2 3 C-1.34 3 -0.68 3 0 3 C0 2.01 0 1.02 0 0 Z " fill="#CCDCF7" transform="translate(239,324)"/>
<path d="M0 0 C0.66 0 1.32 0 2 0 C1.34 2.31 0.68 4.62 0 7 C-0.66 7 -1.32 7 -2 7 C-2.66 8.65 -3.32 10.3 -4 12 C-4.66 11.34 -5.32 10.68 -6 10 C-5.34 10 -4.68 10 -4 10 C-3.896875 9.46375 -3.79375 8.9275 -3.6875 8.375 C-2.81907303 5.37497956 -1.44379704 2.7620465 0 0 Z " fill="#CFDFFD" transform="translate(306,175)"/>
<path d="M0 0 C0.99 0.33 1.98 0.66 3 1 C2.40606618 2.29640378 1.79942011 3.58698839 1.1875 4.875 C0.85105469 5.59429687 0.51460937 6.31359375 0.16796875 7.0546875 C-1 9 -1 9 -4 11 C-2.95902388 7.13351728 -1.96301592 3.50538557 0 0 Z " fill="#DCDEFB" transform="translate(227,346)"/>
<path d="M0 0 C0.66 0.33 1.32 0.66 2 1 C1.01 3.64 0.02 6.28 -1 9 C-2.32 9 -3.64 9 -5 9 C-4.34 8.67 -3.68 8.34 -3 8 C-2.64984951 6.33678518 -2.31802943 4.66965451 -2 3 C-1.34 2.01 -0.68 1.02 0 0 Z " fill="#DFE3FF" transform="translate(319,294)"/>
<path d="M0 0 C0.66 0.66 1.32 1.32 2 2 C1.21718695 3.33855056 0.42348123 4.67073644 -0.375 6 C-0.81585938 6.7425 -1.25671875 7.485 -1.7109375 8.25 C-2.13632813 8.8275 -2.56171875 9.405 -3 10 C-3.66 10 -4.32 10 -5 10 C-4.55090939 8.51800098 -4.09043436 7.03944764 -3.625 5.5625 C-3.36976563 4.73878906 -3.11453125 3.91507813 -2.8515625 3.06640625 C-2 1 -2 1 0 0 Z " fill="#D9D9FC" transform="translate(229,202)"/>
<path d="M0 0 C0.66 0.33 1.32 0.66 2 1 C-1.17320782 4.53586014 -3.16743695 6.58578031 -8 7 C-5.42215154 4.35247996 -3.08351902 2.05567935 0 0 Z " fill="#CED6FF" transform="translate(449,320)"/>
<path d="M0 0 C0.66 0 1.32 0 2 0 C2.26218749 3.14624993 2.24754367 4.61837017 0.5 7.3125 C-0.2425 8.1478125 -0.2425 8.1478125 -1 9 C-1.99 8.67 -2.98 8.34 -4 8 C-3.34 7.67 -2.68 7.34 -2 7 C-1.61781233 5.34385343 -1.28604898 3.67542976 -1 2 C-0.67 1.34 -0.34 0.68 0 0 Z " fill="#D3D3FF" transform="translate(397,160)"/>
<path d="M0 0 C0.66 0 1.32 0 2 0 C0.14285714 7.57142857 0.14285714 7.57142857 -3 10 C-3.66 9.34 -4.32 8.68 -5 8 C-4.21718695 6.66144944 -3.42348123 5.32926356 -2.625 4 C-2.18414062 3.2575 -1.74328125 2.515 -1.2890625 1.75 C-0.86367188 1.1725 -0.43828125 0.595 0 0 Z " fill="#DCDEF9" transform="translate(409,140)"/>
<path d="M0 0 C0.66 0.66 1.32 1.32 2 2 C0.35 4.64 -1.3 7.28 -3 10 C-3.66 9.67 -4.32 9.34 -5 9 C-4.5504955 7.68445015 -4.09010284 6.37261642 -3.625 5.0625 C-3.36976563 4.33160156 -3.11453125 3.60070312 -2.8515625 2.84765625 C-2 1 -2 1 0 0 Z " fill="#D5DCF9" transform="translate(364,111)"/>
<path d="M0 0 C0.66 0 1.32 0 2 0 C3.32 2.31 4.64 4.62 6 7 C4.68 7 3.36 7 2 7 C1.814375 6.071875 1.814375 6.071875 1.625 5.125 C1.12802644 2.80879168 1.12802644 2.80879168 -1 1 C-0.67 0.67 -0.34 0.34 0 0 Z " fill="#D7D5FD" transform="translate(168,325)"/>
<path d="M0 0 C0.66 0.33 1.32 0.66 2 1 C1.34 2.98 0.68 4.96 0 7 C-0.66 7 -1.32 7 -2 7 C-2.33 7.99 -2.66 8.98 -3 10 C-3.66 9.34 -4.32 8.68 -5 8 C-3.35 5.36 -1.7 2.72 0 0 Z " fill="#D2E4FB" transform="translate(312,306)"/>
<path d="M0 0 C0.66 0.66 1.32 1.32 2 2 C0.35 4.64 -1.3 7.28 -3 10 C-3.66 9.67 -4.32 9.34 -5 9 C-4.5504955 7.68445015 -4.09010284 6.37261642 -3.625 5.0625 C-3.36976563 4.33160156 -3.11453125 3.60070312 -2.8515625 2.84765625 C-2 1 -2 1 0 0 Z " fill="#CADBF7" transform="translate(269,274)"/>
<path d="M0 0 C0.66 0.33 1.32 0.66 2 1 C0.73058503 4.91402949 -0.51167694 6.79072873 -4 9 C-4.33 8.34 -4.66 7.68 -5 7 C-4.34 7 -3.68 7 -3 7 C-2.87625 6.21625 -2.7525 5.4325 -2.625 4.625 C-2 2 -2 2 0 0 Z " fill="#CDCEF2" transform="translate(374,201)"/>
<path d="M0 0 C1.32 0.33 2.64 0.66 4 1 C4 2.32 4 3.64 4 5 C2.68 5.33 1.36 5.66 0 6 C0 4.02 0 2.04 0 0 Z " fill="#A3ACFF" transform="translate(484,339)"/>
<path d="M0 0 C0.99 0 1.98 0 3 0 C3 0.99 3 1.98 3 3 C5.64 3 8.28 3 11 3 C11 3.33 11 3.66 11 4 C7.37 4 3.74 4 0 4 C0 2.68 0 1.36 0 0 Z " fill="#DFD6CC" transform="translate(456,316)"/>
<path d="M0 0 C0 2.83967231 -0.40267181 5.23735711 -1 8 C-1.99 8.33 -2.98 8.66 -4 9 C-4 5.28703828 -2.65223411 2.65223411 0 0 Z " fill="#DADFFB" transform="translate(296,194)"/>
<path d="M0 0 C0.99 0.33 1.98 0.66 3 1 C1.68 3.64 0.36 6.28 -1 9 C-1.66 9 -2.32 9 -3 9 C-1.125 2.25 -1.125 2.25 0 0 Z " fill="#CADCFD" transform="translate(233,193)"/>
<path d="M0 0 C0.99 0.33 1.98 0.66 3 1 C4.1875 4.5625 4.1875 4.5625 5 8 C4.34 8 3.68 8 3 8 C1.02 4.535 1.02 4.535 -1 1 C-0.67 0.67 -0.34 0.34 0 0 Z " fill="#DCDBF9" transform="translate(399,117)"/>
<path d="M0 0 C0.88492145 2.47778006 1.11637742 3.66056586 0.25 6.1875 C-1 8 -1 8 -4 9 C-4.33 8.34 -4.66 7.68 -5 7 C-4.34 7 -3.68 7 -3 7 C-2.87625 6.401875 -2.7525 5.80375 -2.625 5.1875 C-2 3 -2 3 0 0 Z " fill="#DEECF1" transform="translate(290,204)"/>
<path d="M0 0 C0.66 0.66 1.32 1.32 2 2 C1.1875 4.9375 1.1875 4.9375 0 8 C-0.99 8.33 -1.98 8.66 -3 9 C-3 5.30581799 -1.71820705 3.22163822 0 0 Z " fill="#D3E0FC" transform="translate(391,170)"/>
<path d="M0 0 C0.99 0.495 0.99 0.495 2 1 C2 1.66 2 2.32 2 3 C2.66 3.33 3.32 3.66 4 4 C3.67 4.66 3.34 5.32 3 6 C3.66 6 4.32 6 5 6 C4.67 6.99 4.34 7.98 4 9 C1.47740939 7.02579865 1.0070192 6.03254358 0.3125 2.8125 C0.209375 1.884375 0.10625 0.95625 0 0 Z " fill="#D3EFFF" transform="translate(482,329)"/>
<path d="M0 0 C0.66 0 1.32 0 2 0 C1.125 4.75 1.125 4.75 0 7 C-0.99 6.67 -1.98 6.34 -3 6 C-1.125 1.125 -1.125 1.125 0 0 Z " fill="#C7D6FF" transform="translate(278,257)"/>
<path d="M0 0 C0.66 0.66 1.32 1.32 2 2 C0.35 4.31 -1.3 6.62 -3 9 C-3 5.03616548 -2.84763523 2.84763523 0 0 Z " fill="#C4D4FF" transform="translate(211,232)"/>
<path d="M0 0 C0.99 0.33 1.98 0.66 3 1 C2.67 1.99 2.34 2.98 2 4 C1.34 4 0.68 4 0 4 C0 4.99 0 5.98 0 7 C-0.99 6.67 -1.98 6.34 -3 6 C-2.01 4.02 -1.02 2.04 0 0 Z " fill="#DCE6FF" transform="translate(379,191)"/>
<path d="M0 0 C0.66 0.66 1.32 1.32 2 2 C0.02 4.97 0.02 4.97 -2 8 C-2.66 7.67 -3.32 7.34 -4 7 C-3.39816251 4.97954558 -2.72693904 2.97888961 -2 1 C-1.34 0.67 -0.68 0.34 0 0 Z " fill="#CDE0FF" transform="translate(246,173)"/>
<path d="M0 0 C3.60654039 2.40436026 3.85452932 3.94679607 5 8 C4.34 8 3.68 8 3 8 C1.02 4.535 1.02 4.535 -1 1 C-0.67 0.67 -0.34 0.34 0 0 Z " fill="#E4E6FF" transform="translate(388,100)"/>
<path d="M0 0 C1.32 0.33 2.64 0.66 4 1 C4.33 2.65 4.66 4.3 5 6 C4.01 5.67 3.02 5.34 2 5 C0.8125 2.4375 0.8125 2.4375 0 0 Z " fill="#DDD2DD" transform="translate(173,333)"/>
<path d="M0 0 C0.66 0.66 1.32 1.32 2 2 C0.02 4.97 0.02 4.97 -2 8 C-2.93423645 4.98968256 -3.04449911 4.13349732 -2 1 C-1.34 0.67 -0.68 0.34 0 0 Z " fill="#D1E0FC" transform="translate(223,212)"/>
<path d="M0 0 C0.99 0 1.98 0 3 0 C3.33 0.99 3.66 1.98 4 3 C3 4 3 4 0.4375 4.0625 C-0.7690625 4.0315625 -0.7690625 4.0315625 -2 4 C-1.34 2.68 -0.68 1.36 0 0 Z " fill="#DAD7E1" transform="translate(378,88)"/>
<path d="M0 0 C3.63 0 7.26 0 11 0 C10.67 0.66 10.34 1.32 10 2 C6.7 2 3.4 2 0 2 C0 1.34 0 0.68 0 0 Z " fill="#FFFFFF" transform="translate(456,366)"/>
<path d="M0 0 C0.66 0 1.32 0 2 0 C1.67 0.99 1.34 1.98 1 3 C0.67 2.01 0.34 1.02 0 0 Z " fill="#FFFFFF" transform="translate(437,334)"/>
<path d="" fill="#FFFFFF" transform="translate(0,0)"/>
<path d="" fill="#FFFFFF" transform="translate(0,0)"/>
<path d="M0 0 C2 1 2 1 2 1 Z " fill="#FFFFFF" transform="translate(221,357)"/>
<path d="" fill="#FFFFFF" transform="translate(0,0)"/>
<path d="M0 0 C2 1 2 1 2 1 Z " fill="#FFFFBF" transform="translate(219,327)"/>
<path d="M0 0 C2 1 2 1 2 1 Z " fill="#FFFFFF" transform="translate(170,301)"/>
<path d="" fill="#FFFFFF" transform="translate(0,0)"/>
<path d="" fill="#FFFFFF" transform="translate(0,0)"/>
<path d="" fill="#FFFFFF" transform="translate(0,0)"/>
<path d="" fill="#FFFFFF" transform="translate(0,0)"/>
<path d="" fill="#FFFFFF" transform="translate(0,0)"/>
<path d="M0 0 C2 1 2 1 2 1 Z " fill="#FFBFBF" transform="translate(249,166)"/>
<path d="" fill="#FFFFFF" transform="translate(0,0)"/>
<path d="" fill="#FFFFFF" transform="translate(0,0)"/>
<path d="M0 0 C2 1 2 1 2 1 Z " fill="#FFFFFF" transform="translate(321,152)"/>
<path d="" fill="#FFFFFF" transform="translate(0,0)"/>
<path d="" fill="#FFFFFF" transform="translate(0,0)"/>
<path d="" fill="#FFFFFF" transform="translate(0,0)"/>
<path d="" fill="#FFFFFF" transform="translate(0,0)"/>
<path d="" fill="#FFFFFF" transform="translate(0,0)"/>
<path d="" fill="#FFFFFF" transform="translate(0,0)"/>
<path d="" fill="#FFFFFF" transform="translate(0,0)"/>
<path d="" fill="#FFFFFF" transform="translate(0,0)"/>
<path d="" fill="#FFFFFF" transform="translate(0,0)"/>
<path d="" fill="#FFFFFF" transform="translate(0,0)"/>
<path d="" fill="#FFFFFF" transform="translate(0,0)"/>
<path d="" fill="#FFFFFF" transform="translate(0,0)"/>
<path d="" fill="#FFFFFF" transform="translate(0,0)"/>
<path d="" fill="#FFFFFF" transform="translate(0,0)"/>
<path d="" fill="#FFFFFF" transform="translate(0,0)"/>
<path d="" fill="#FFFFFF" transform="translate(0,0)"/>
<path d="" fill="#FFFFFF" transform="translate(0,0)"/>
<path d="" fill="#FFFFFF" transform="translate(0,0)"/>
<path d="" fill="#FFFFFF" transform="translate(0,0)"/>
<path d="" fill="#FFFFFF" transform="translate(0,0)"/>
<path d="" fill="#FFFFFF" transform="translate(0,0)"/>
<path d="" fill="#FFFFFF" transform="translate(0,0)"/>
<path d="" fill="#FFFFFF" transform="translate(0,0)"/>
<path d="" fill="#FFFFFF" transform="translate(0,0)"/>
<path d="" fill="#FFFFFF" transform="translate(0,0)"/>
<path d="" fill="#FFFFFF" transform="translate(0,0)"/>
<path d="" fill="#FFFFFF" transform="translate(0,0)"/>
<path d="" fill="#FFFFFF" transform="translate(0,0)"/>
<path d="" fill="#FFFFFF" transform="translate(0,0)"/>
<path d="" fill="#FFFFFF" transform="translate(0,0)"/>
<path d="" fill="#FFFFFF" transform="translate(0,0)"/>
<path d="" fill="#FFFFFF" transform="translate(0,0)"/>
<path d="" fill="#FFFFFF" transform="translate(0,0)"/>
<path d="" fill="#FFFFFF" transform="translate(0,0)"/>
<path d="" fill="#FFFFFF" transform="translate(0,0)"/>
<path d="" fill="#FFFFFF" transform="translate(0,0)"/>
<path d="" fill="#FFFFFF" transform="translate(0,0)"/>
<path d="" fill="#FFFFFF" transform="translate(0,0)"/>
<path d="" fill="#FFFFFF" transform="translate(0,0)"/>
<path d="" fill="#FFFFFF" transform="translate(0,0)"/>
<path d="" fill="#FFFFFF" transform="translate(0,0)"/>
<path d="" fill="#FFFFFF" transform="translate(0,0)"/>
<path d="" fill="#FFFFFF" transform="translate(0,0)"/>
<path d="" fill="#FFFFFF" transform="translate(0,0)"/>
<path d="" fill="#FFFFFF" transform="translate(0,0)"/>
<path d="" fill="#FFFFFF" transform="translate(0,0)"/>
<path d="" fill="#FFFFFF" transform="translate(0,0)"/>
<path d="" fill="#FFFFFF" transform="translate(0,0)"/>
<path d="" fill="#FFFFFF" transform="translate(0,0)"/>
<path d="" fill="#FFFFFF" transform="translate(0,0)"/>
<path d="" fill="#FFFFFF" transform="translate(0,0)"/>
<path d="" fill="#FFFFFF" transform="translate(0,0)"/>
<path d="" fill="#FFFFFF" transform="translate(0,0)"/>
<path d="" fill="#FFFFFF" transform="translate(0,0)"/>
<path d="" fill="#FFFFFF" transform="translate(0,0)"/>
<path d="" fill="#FFFFFF" transform="translate(0,0)"/>
<path d="" fill="#FFFFFF" transform="translate(0,0)"/>
<path d="" fill="#FFFFFF" transform="translate(0,0)"/>
<path d="" fill="#FFFFFF" transform="translate(0,0)"/>
<path d="" fill="#FFFFFF" transform="translate(0,0)"/>
<path d="" fill="#FFFFFF" transform="translate(0,0)"/>
<path d="" fill="#FFFFFF" transform="translate(0,0)"/>
<path d="" fill="#FFFFFF" transform="translate(0,0)"/>
<path d="" fill="#FFFFFF" transform="translate(0,0)"/>
<path d="" fill="#FFFFAA" transform="translate(0,0)"/>
<path d="" fill="#FFFFFF" transform="translate(0,0)"/>
<path d="" fill="#FFFFFF" transform="translate(0,0)"/>
<path d="" fill="#FFFFFF" transform="translate(0,0)"/>
<path d="" fill="#FFFFFF" transform="translate(0,0)"/>
<path d="" fill="#FFFFFF" transform="translate(0,0)"/>
<path d="" fill="#FFFFFF" transform="translate(0,0)"/>
<path d="" fill="#FFFFFF" transform="translate(0,0)"/>
<path d="" fill="#FFFFFF" transform="translate(0,0)"/>
<path d="" fill="#FFFFFF" transform="translate(0,0)"/>
<path d="" fill="#FFFFFF" transform="translate(0,0)"/>
<path d="" fill="#FFFFFF" transform="translate(0,0)"/>
<path d="" fill="#FFFFFF" transform="translate(0,0)"/>
<path d="" fill="#FFFFFF" transform="translate(0,0)"/>
<path d="" fill="#FFFFFF" transform="translate(0,0)"/>
<path d="" fill="#FFFFFF" transform="translate(0,0)"/>
<path d="" fill="#FFFFFF" transform="translate(0,0)"/>
<path d="" fill="#FFFFFF" transform="translate(0,0)"/>
<path d="" fill="#FFFFFF" transform="translate(0,0)"/>
<path d="" fill="#FFFFFF" transform="translate(0,0)"/>
<path d="" fill="#FFFFFF" transform="translate(0,0)"/>
<path d="" fill="#FFFFFF" transform="translate(0,0)"/>
<path d="" fill="#FFFFFF" transform="translate(0,0)"/>
<path d="" fill="#FFFFFF" transform="translate(0,0)"/>
<path d="" fill="#FFFFFF" transform="translate(0,0)"/>
<path d="" fill="#FFFFFF" transform="translate(0,0)"/>
<path d="" fill="#FFFFFF" transform="translate(0,0)"/>
<path d="" fill="#FFFFFF" transform="translate(0,0)"/>
<path d="" fill="#FFFFFF" transform="translate(0,0)"/>
<path d="" fill="#FFFFFF" transform="translate(0,0)"/>
<path d="" fill="#FFFFFF" transform="translate(0,0)"/>
<path d="" fill="#FFFFFF" transform="translate(0,0)"/>
<path d="" fill="#FFFFFF" transform="translate(0,0)"/>
<path d="" fill="#FFFFFF" transform="translate(0,0)"/>
<path d="" fill="#FFFFFF" transform="translate(0,0)"/>
<path d="" fill="#FFFFFF" transform="translate(0,0)"/>
<path d="" fill="#FFFFFF" transform="translate(0,0)"/>
<path d="" fill="#FFFFFF" transform="translate(0,0)"/>
<path d="" fill="#FFFFFF" transform="translate(0,0)"/>
<path d="" fill="#FFFFFF" transform="translate(0,0)"/>
<path d="" fill="#FFFFFF" transform="translate(0,0)"/>
<path d="" fill="#FFFFFF" transform="translate(0,0)"/>
<path d="" fill="#FFFFFF" transform="translate(0,0)"/>
<path d="" fill="#FFFFFF" transform="translate(0,0)"/>
<path d="" fill="#FFFFFF" transform="translate(0,0)"/>
<path d="" fill="#FFFFFF" transform="translate(0,0)"/>
<path d="" fill="#FFFFFF" transform="translate(0,0)"/>
<path d="" fill="#FFFFFF" transform="translate(0,0)"/>
<path d="" fill="#FFFFFF" transform="translate(0,0)"/>
<path d="" fill="#FFFFFF" transform="translate(0,0)"/>
<path d="" fill="#FFFFFF" transform="translate(0,0)"/>
<path d="" fill="#FFFFFF" transform="translate(0,0)"/>
<path d="" fill="#FFFFFF" transform="translate(0,0)"/>
<path d="" fill="#FFFFFF" transform="translate(0,0)"/>
<path d="" fill="#FFFFFF" transform="translate(0,0)"/>
<path d="" fill="#FFFFFF" transform="translate(0,0)"/>
<path d="" fill="#FFFFFF" transform="translate(0,0)"/>
<path d="" fill="#FFFFFF" transform="translate(0,0)"/>
<path d="" fill="#FFFFFF" transform="translate(0,0)"/>
<path d="" fill="#FFFFFF" transform="translate(0,0)"/>
<path d="" fill="#FFFFFF" transform="translate(0,0)"/>
<path d="" fill="#FFFFFF" transform="translate(0,0)"/>
<path d="" fill="#FFFFAA" transform="translate(0,0)"/>
<path d="" fill="#FFFFFF" transform="translate(0,0)"/>
<path d="" fill="#FFFFFF" transform="translate(0,0)"/>
<path d="" fill="#FFFFFF" transform="translate(0,0)"/>
<path d="" fill="#FFFFFF" transform="translate(0,0)"/>
<path d="" fill="#FFFFFF" transform="translate(0,0)"/>
<path d="" fill="#FFFFFF" transform="translate(0,0)"/>
<path d="" fill="#FFFFFF" transform="translate(0,0)"/>
<path d="" fill="#FFFFFF" transform="translate(0,0)"/>
<path d="" fill="#FFFFFF" transform="translate(0,0)"/>
<path d="" fill="#FFFFFF" transform="translate(0,0)"/>
<path d="" fill="#FFFFFF" transform="translate(0,0)"/>
<path d="" fill="#FFFFFF" transform="translate(0,0)"/>
<path d="" fill="#FFFFFF" transform="translate(0,0)"/>
<path d="" fill="#FFFFFF" transform="translate(0,0)"/>
<path d="" fill="#FFFFFF" transform="translate(0,0)"/>
</svg>
